<svg width="80" height="165" viewBox="0 0 80 165" fill="none" xmlns="http://www.w3.org/2000/svg">
<path d="M40 165C62.0914 165 80 147.091 80 125C80 102.909 62.0914 85 40 85C17.9086 85 0 102.909 0 125C0 147.091 17.9086 165 40 165Z" fill="#FDBC4B"/>
<path d="M13.7705 125C13.7705 139.557 25.5738 151.23 40 151.23C54.5574 151.23 66.2295 139.426 66.2295 125H13.7705Z" fill="#333333"/>
<path d="M25.4426 135.361C25.4426 143.361 32 149.918 40 149.918C48 149.918 54.5574 143.361 54.5574 135.361H25.4426Z" fill="#CA2027"/>
<path d="M27.8033 117.525C31.28 117.525 34.0984 114.706 34.0984 111.23C34.0984 107.753 31.28 104.935 27.8033 104.935C24.3266 104.935 21.5082 107.753 21.5082 111.23C21.5082 114.706 24.3266 117.525 27.8033 117.525Z" fill="#333333"/>
<path d="M51.541 117.525C55.0177 117.525 57.8361 114.706 57.8361 111.23C57.8361 107.753 55.0177 104.935 51.541 104.935C48.0643 104.935 45.2459 107.753 45.2459 111.23C45.2459 114.706 48.0643 117.525 51.541 117.525Z" fill="#333333"/>
<path d="M69.6566 23.1968H10.0914V66.3164H69.6566V23.1968Z" stroke="white" stroke-width="4" stroke-miterlimit="10"/>
<path d="M69.6566 23.1963L40.099 47.6963L10.9916 23.1963" stroke="white" stroke-width="4" stroke-miterlimit="10"/>
<path d="M40.1545 30.7754C47.9718 30.7754 54.309 23.8861 54.309 15.3877C54.309 6.88931 47.9718 0 40.1545 0C32.3372 0 26 6.88931 26 15.3877C26 23.8861 32.3372 30.7754 40.1545 30.7754Z" fill="url(#paint0_linear)"/>
<path d="M48.8044 9.40381L38.7992 21.3721L32.2909 15.0106" stroke="white" stroke-width="4" stroke-miterlimit="10"/>
<defs>
<linearGradient id="paint0_linear" x1="30.1458" y1="4.50689" x2="51.8316" y2="24.4547" gradientUnits="userSpaceOnUse">
<stop stop-color="#5A6CF1"/>
<stop offset="1" stop-color="#3C31C8"/>
</linearGradient>
</defs>
</svg>