<svg xmlns="http://www.w3.org/2000/svg" xmlns:xlink="http://www.w3.org/1999/xlink" viewBox="0 0 717 252"><defs><style>.a{fill:#fff;}.a,.b{fill-rule:evenodd;}.b{fill:url(#a);}</style><linearGradient id="a" x1="244.43" y1="89.43" x2="328.57" y2="173.57" gradientUnits="userSpaceOnUse"><stop offset="0" stop-color="#5a6cf1"/><stop offset="1" stop-color="#3c31c8"/></linearGradient></defs><title>Asset 1</title><path class="a" d="M576.52,218.19q-3,7.62-6.2,13.85A44.39,44.39,0,0,1,562,242.72a30.4,30.4,0,0,1-10.63,6.86A41.65,41.65,0,0,1,536.26,252a83.1,83.1,0,0,1-9-.51,31.3,31.3,0,0,1-9.74-2.54l3.53-17.29a42,42,0,0,0,13.93,2q9.63,0,14.19-5.33a44.54,44.54,0,0,0,8.35-13.74l9-23.12L519,72h20l37.47,94.5,37-94.5H634Z"/><path class="a" d="M490,0H470.17V87.53a59.43,59.43,0,1,0,0,88.56V191H490ZM390.83,131.69a39.5,39.5,0,1,1,39.5,39.5A39.55,39.55,0,0,1,390.83,131.69Z"/><path class="b" d="M286.5,92A39.5,39.5,0,1,1,247,131.5,39.55,39.55,0,0,1,286.5,92Zm0,99A59.5,59.5,0,1,0,227,131.5,59.5,59.5,0,0,0,286.5,191Z"/><path class="a" d="M163.24,72H144V191h19.32s0-29,0-59c0-4.21,0-9.18,0-14.73,0-20,15.68-31.62,37-24l5.87,2.17c1.45-4.34,5.13-16.89,5.13-16.89-10.27-6.18-32.26-10.47-48,1.91C163.25,75.58,163.24,72.49,163.24,72Z"/><path class="a" d="M19.83,0H0V191H19.83V176.09a59.43,59.43,0,1,0,0-88.56ZM21,131.5A39.5,39.5,0,1,1,60.5,171,39.55,39.55,0,0,1,21,131.5Z"/><path class="a" d="M704,6.55a6.76,6.76,0,0,1,1.68-4.69A6.14,6.14,0,0,1,710.48,0a6.21,6.21,0,0,1,4.82,1.86A6.73,6.73,0,0,1,717,6.55a6.55,6.55,0,0,1-1.7,4.61A6.23,6.23,0,0,1,710.48,13a6.16,6.16,0,0,1-4.8-1.84A6.58,6.58,0,0,1,704,6.55ZM716,71.4H705V21h11Zm-47.71-8a8.41,8.41,0,0,1-5.8-1.93,6.6,6.6,0,0,1-2.17-5.2,7.09,7.09,0,0,1,3.17-6.19c2.11-1.46,4.8-2.19,15.56-2.19C679.42,61.55,672.94,63.4,668.29,63.4Zm12.43,8.15a17.62,17.62,0,0,1-1.3-4.7c-3.6,3.75-7.36,4.7-13.23,4.7-7.57,0-17.19-3.22-17.19-14.11q0-8.07,6-12.37t17.12-4.31h6.94V37.45a8.8,8.8,0,0,0-2.19-6.26q-2.19-2.36-6.66-2.36a10,10,0,0,0-6.34,1.94,6,6,0,0,0-2.47,4.91H650.07a12.6,12.6,0,0,1,2.75-7.76,18.34,18.34,0,0,1,7.48-5.66,26.37,26.37,0,0,1,10.55-2.05q8.85,0,14.11,4.45t5.41,12.51V59.9c0,4.54.63,8.95,1.91,11.65Z"/></svg>