<svg xmlns="http://www.w3.org/2000/svg" xmlns:xlink="http://www.w3.org/1999/xlink" viewBox="0 0 41.43 61"><defs><style>.a{fill:#fff;}.b{fill-rule:evenodd;fill:url(#a);}</style><linearGradient id="a" x1="6.07" y1="6.07" x2="35.37" y2="35.37" gradientUnits="userSpaceOnUse"><stop offset="0" stop-color="#5a6cf1"/><stop offset="1" stop-color="#3c31c8"/></linearGradient></defs><title>Asset 8</title><polygon class="a" points="17.74 36.62 15.74 36.62 15.74 28.59 12 24.85 12 19.73 14 19.73 14 24.02 17.74 27.76 17.74 36.62"/><polygon class="a" points="25.7 36.62 23.7 36.62 23.7 27.76 27.43 24.02 27.43 19.73 29.43 19.73 29.43 24.85 25.7 28.59 25.7 36.62"/><rect class="a" x="19.72" y="19.73" width="2" height="16.89"/><rect class="a" x="11.62" y="44.71" width="18.19" height="2"/><rect class="a" x="11.62" y="49.91" width="18.19" height="2"/><path class="b" d="M20.72,7A13.76,13.76,0,1,1,7,20.72,13.77,13.77,0,0,1,20.72,7Zm0,34.47A20.72,20.72,0,1,0,0,20.72,20.71,20.71,0,0,0,20.72,41.43Z"/><path class="a" d="M20.72,61a6.85,6.85,0,0,1-6.85-6.85h2a4.85,4.85,0,1,0,9.69,0h2A6.85,6.85,0,0,1,20.72,61Z"/></svg>