<svg xmlns="http://www.w3.org/2000/svg" xmlns:xlink="http://www.w3.org/1999/xlink" viewBox="0 0 61 61"><defs><style>.a{fill:#fff;}.b{fill-rule:evenodd;fill:url(#a);}</style><linearGradient id="a" x1="45.64" y1="14.14" x2="58.36" y2="26.86" gradientUnits="userSpaceOnUse"><stop offset="0" stop-color="#5a6cf1"/><stop offset="1" stop-color="#3c31c8"/></linearGradient></defs><title>Asset 3</title><polygon class="a" points="61 61 0 61 0 0 2 0 2 59 61 59 61 61"/><polygon class="a" points="2.5 59.16 0.99 57.84 23.92 31.48 32.4 41.23 45.99 25.59 47.51 26.91 32.4 44.27 23.92 34.52 2.5 59.16"/><path class="b" d="M52,14.53a6,6,0,1,1-6,6A6,6,0,0,1,52,14.53Zm0,15a9,9,0,1,0-9-9A9,9,0,0,0,52,29.5Z"/></svg>