<svg xmlns="http://www.w3.org/2000/svg" xmlns:xlink="http://www.w3.org/1999/xlink" viewBox="0 0 61.02 61.51"><defs><style>.a{fill:#fff;}.b{fill-rule:evenodd;fill:url(#a);}</style><linearGradient id="a" x1="36.53" y1="4.2" x2="56.82" y2="24.49" gradientUnits="userSpaceOnUse"><stop offset="0" stop-color="#5a6cf1"/><stop offset="1" stop-color="#3c31c8"/></linearGradient></defs><title>Asset 10</title><path class="a" d="M.55,37.5,0,60.69l34.51.82.55-23.19Zm30.74,2.73L17.06,52,3.42,39.57ZM2.05,58.74,2.46,41.4,17,54.66,33,41.42l-.43,18Z"/><path class="a" d="M1.35,16.27,1,33.47l25.31.6.41-17.2Zm21.56,2.51-9.43,7.81-9-8.24ZM3,31.52,3.27,20l10.15,9.25L24.59,20l-.28,12Z"/><path class="b" d="M46.68,4.82a9.53,9.53,0,1,1-9.53,9.53A9.54,9.54,0,0,1,46.68,4.82Zm0,23.87A14.35,14.35,0,1,0,32.33,14.35,14.34,14.34,0,0,0,46.68,28.69Z"/><polygon class="a" points="45.62 19.16 40.78 14.91 42.1 13.41 45.48 16.38 51.17 10.24 52.64 11.6 45.62 19.16"/></svg>