<svg xmlns="http://www.w3.org/2000/svg" xmlns:xlink="http://www.w3.org/1999/xlink" viewBox="0 0 51.18 62"><defs><style>.a{fill:#fff;}.b{fill-rule:evenodd;fill:url(#a);}</style><linearGradient id="a" x1="22.01" y1="20.94" x2="38.14" y2="37.06" gradientUnits="userSpaceOnUse"><stop offset="0" stop-color="#5a6cf1"/><stop offset="1" stop-color="#3c31c8"/></linearGradient></defs><title>Asset 7</title><path class="a" d="M42.07,62h-18a1,1,0,0,1-1-.76L21.29,54H15.65a8.59,8.59,0,0,1-8.58-8.58V39.78L2.31,38.59a3,3,0,0,1-2-1.68,3.08,3.08,0,0,1,0-2.65l6.75-13.5V19a19,19,0,0,1,19-19h8.34A16.67,16.67,0,0,1,51.07,16.66V19h-2V16.66A14.67,14.67,0,0,0,34.41,2H26.07a17,17,0,0,0-17,17v2a1,1,0,0,1-.1.45L2.11,35.16a1.06,1.06,0,0,0,.69,1.49L8.32,38a1,1,0,0,1,.75,1v6.42A6.59,6.59,0,0,0,15.65,52h6.42a1,1,0,0,1,1,.76L24.86,60h16l-1.8-10.84a1,1,0,0,1,.54-1c9.66-4.84,9.75-15.06,9.54-18.11h-9.1V28h10a1,1,0,0,1,1,.86c0,.14,1.89,14.26-9.88,20.69l1.88,11.29a1,1,0,0,1-.22.81A1,1,0,0,1,42.07,62Z"/><path class="b" d="M30.07,21.43A7.57,7.57,0,1,1,22.5,29,7.58,7.58,0,0,1,30.07,21.43Zm0,19A11.4,11.4,0,1,0,18.67,29,11.4,11.4,0,0,0,30.07,40.4Z"/></svg>