<svg xmlns="http://www.w3.org/2000/svg" xmlns:xlink="http://www.w3.org/1999/xlink" viewBox="0 0 69.33 60"><defs><style>.a,.b{fill-rule:evenodd;}.a{fill:url(#a);}.b{fill:url(#b);}.c{fill:#fff;}</style><linearGradient id="a" x1="3.91" y1="3.91" x2="22.76" y2="22.76" gradientUnits="userSpaceOnUse"><stop offset="0" stop-color="#5a6cf1"/><stop offset="1" stop-color="#3c31c8"/></linearGradient><linearGradient id="b" x1="46.57" y1="37.24" x2="65.43" y2="56.09" xlink:href="#a"/></defs><title>Asset 6</title><path class="a" d="M13.33,4.48a8.85,8.85,0,1,1-8.85,8.85A8.86,8.86,0,0,1,13.33,4.48Zm0,22.19A13.34,13.34,0,1,0,0,13.33,13.34,13.34,0,0,0,13.33,26.67Z"/><path class="b" d="M56,37.82a8.85,8.85,0,1,1-8.85,8.85A8.86,8.86,0,0,1,56,37.82ZM56,60A13.34,13.34,0,1,0,42.67,46.67,13.33,13.33,0,0,0,56,60Z"/><polygon class="c" points="60.13 21.64 59.56 0.98 38.9 1.55 38.95 3.55 56.37 3.07 15.23 52.7 16.77 53.97 57.66 4.64 58.13 21.7 60.13 21.64"/></svg>