<svg xmlns="http://www.w3.org/2000/svg" xmlns:xlink="http://www.w3.org/1999/xlink" viewBox="0 0 53.98 61"><defs><style>.a{fill-rule:evenodd;fill:url(#a);}.b{fill:#fff;}</style><linearGradient id="a" x1="14.68" y1="5.1" x2="39.29" y2="29.71" gradientUnits="userSpaceOnUse"><stop offset="0" stop-color="#5a6cf1"/><stop offset="1" stop-color="#3c31c8"/></linearGradient></defs><title>Asset 5</title><path class="a" d="M27,5.85A11.55,11.55,0,1,1,15.44,17.4,11.56,11.56,0,0,1,27,5.85ZM27,34.8A17.4,17.4,0,1,0,9.59,17.4,17.4,17.4,0,0,0,27,34.8Z"/><path class="b" d="M13.19,61h0a1,1,0,0,1-.87-.6l-3.2-7.35L1.16,54.3a1,1,0,0,1-1-1.47L10.6,33.6a1,1,0,0,1,1.56-.26,27.71,27.71,0,0,0,11.76,6.45,1,1,0,0,1,.67.57,1,1,0,0,1,0,.88L14.06,60.48A1,1,0,0,1,13.19,61ZM9.68,50.94a1,1,0,0,1,.92.6l2.69,6.18,8.9-16.34a29.91,29.91,0,0,1-10.43-5.72L2.85,52,9.53,51Z"/><path class="b" d="M40.79,61a1,1,0,0,1-.88-.52L29.43,41.24a1,1,0,0,1,.62-1.45,27.79,27.79,0,0,0,11.77-6.45,1,1,0,0,1,.84-.25,1,1,0,0,1,.71.51L53.86,52.83a1,1,0,0,1-.06,1.06,1,1,0,0,1-1,.41L44.9,53.05,41.71,60.4a1,1,0,0,1-.87.6Zm-9-19.62,8.91,16.34,2.69-6.18A1,1,0,0,1,44.45,51L51.13,52,42.22,35.65A29.73,29.73,0,0,1,31.78,41.38Z"/></svg>