<svg xmlns="http://www.w3.org/2000/svg" xmlns:xlink="http://www.w3.org/1999/xlink" viewBox="0 0 32.87 61"><defs><style>.a{fill:#fff;}.b{fill-rule:evenodd;fill:url(#a);}</style><linearGradient id="a" x1="7.1" y1="3.07" x2="21.93" y2="17.89" gradientUnits="userSpaceOnUse"><stop offset="0" stop-color="#5a6cf1"/><stop offset="1" stop-color="#3c31c8"/></linearGradient></defs><title>Asset 4</title><path class="a" d="M11.52,61a1,1,0,0,1-.63-.23,1,1,0,0,1-.37-.78l0-3L1.12,47.58a3.86,3.86,0,0,1,0-5.44,4,4,0,0,1,5.44,0l4.14,4.14.08-6.63V29.41a3.54,3.54,0,1,1,7.08,0V36a3.49,3.49,0,0,1,1.55-.35,3.53,3.53,0,0,1,3,1.68,3.55,3.55,0,0,1,5.44,1.76,3.42,3.42,0,0,1,5,3V60a1,1,0,0,1-.45.83,1,1,0,0,1-.93.09s-4.79-2-7.61-2-12,2-12.14,2ZM3.84,43A1.84,1.84,0,0,0,2,44.86a1.83,1.83,0,0,0,.54,1.31l9.73,9.73a1,1,0,0,1,.3.72l0,2.14C15.2,58.21,21.41,57,23.88,57a24,24,0,0,1,7,1.58V42.07a1.42,1.42,0,0,0-2.83,0,1,1,0,0,1-2,0v-1.9a1.55,1.55,0,1,0-3.09,0,1,1,0,0,1-2,0v-1a1.55,1.55,0,0,0-3.09,0,1,1,0,0,1-2,0V29.41a1.54,1.54,0,1,0-3.08,0V39.66l-.11,9a1,1,0,0,1-.63.91A1,1,0,0,1,11,49.37L5.15,43.56A1.83,1.83,0,0,0,3.84,43Z"/><path class="a" d="M17.88,52.86a1,1,0,0,1-1-1v-6.1a1,1,0,0,1,2,0v6.1A1,1,0,0,1,17.88,52.86Z"/><path class="a" d="M22,52.86a1,1,0,0,1-1-1v-6.1a1,1,0,0,1,2,0v6.1A1,1,0,0,1,22,52.86Z"/><path class="a" d="M26,52.86a1,1,0,0,1-1-1v-6.1a1,1,0,0,1,2,0v6.1A1,1,0,0,1,26,52.86Z"/><path class="b" d="M14.51,3.52a7,7,0,1,1-7,7A7,7,0,0,1,14.51,3.52Zm0,17.44A10.48,10.48,0,1,0,4,10.48,10.49,10.49,0,0,0,14.51,21Z"/></svg>